HIERARCHY
ROOT joint_Root
{
	OFFSET 0.0 0.0 0.0
	CHANNELS 6 Xposition Yposition Zposition Zrotation Xrotation Yrotation 
	JOINT Hips
	{
		OFFSET -17.1583 93.1646 452.98
		CHANNELS 6 Xposition Yposition Zposition Zrotation Xrotation Yrotation 
		JOINT Spine
		{
			OFFSET 15.7357 0.0 0.0
			CHANNELS 6 Xposition Yposition Zposition Zrotation Xrotation Yrotation 
			JOINT Chest
			{
				OFFSET 8.98455 -0.406207 0.0
				CHANNELS 6 Xposition Yposition Zposition Zrotation Xrotation Yrotation 
				JOINT Neck
				{
					OFFSET 16.3773 0.0 0.0
					CHANNELS 6 Xposition Yposition Zposition Zrotation Xrotation Yrotation 
					JOINT Head
					{
						OFFSET 6.45672 0.0 0.0
						CHANNELS 6 Xposition Yposition Zposition Zrotation Xrotation Yrotation 
						End Site
						{
							OFFSET 0.0 0.0 0.0
						}
					}
				}
				JOINT Shoulder_L
				{
					OFFSET 12.9942 -0.242716 4.98039
					CHANNELS 6 Xposition Yposition Zposition Zrotation Xrotation Yrotation 
					JOINT UpperArm_L
					{
						OFFSET 5.34809 0.0 0.0
						CHANNELS 6 Xposition Yposition Zposition Zrotation Xrotation Yrotation 
						JOINT LowerArm_L
						{
							OFFSET 24.3286 1.87007e-05 0.0
							CHANNELS 6 Xposition Yposition Zposition Zrotation Xrotation Yrotation 
							JOINT Hand_L
							{
								OFFSET 22.2916 0.0 0.0
								CHANNELS 6 Xposition Yposition Zposition Zrotation Xrotation Yrotation 
								End Site
								{
									OFFSET 0.0 0.0 0.0
								}
							}
						}
					}
				}
				JOINT Shoulder_R
				{
					OFFSET 12.9945 -0.242716 -4.98039
					CHANNELS 6 Xposition Yposition Zposition Zrotation Xrotation Yrotation 
					JOINT UpperArm_R
					{
						OFFSET -5.34813 0.0 0.0
						CHANNELS 6 Xposition Yposition Zposition Zrotation Xrotation Yrotation 
						JOINT LowerArm_R
						{
							OFFSET -24.3289 0.000322201 0.0
							CHANNELS 6 Xposition Yposition Zposition Zrotation Xrotation Yrotation 
							JOINT Hand_R
							{
								OFFSET -22.2915 -0.000108084 0.0
								CHANNELS 6 Xposition Yposition Zposition Zrotation Xrotation Yrotation 
								End Site
								{
									OFFSET 0.0 0.0 0.0
								}
							}
						}
					}
				}
			}
		}
		JOINT UpperLeg_L
		{
			OFFSET -2.19248 -6.46944 0.0
			CHANNELS 6 Xposition Yposition Zposition Zrotation Xrotation Yrotation 
			JOINT LowerLeg_L
			{
				OFFSET 39.0811 0.0 -1.23785e-05
				CHANNELS 6 Xposition Yposition Zposition Zrotation Xrotation Yrotation 
				JOINT Foot_L
				{
					OFFSET 40.9854 0.0 -1.26872e-05
					CHANNELS 6 Xposition Yposition Zposition Zrotation Xrotation Yrotation 
					JOINT Toes_L
					{
						OFFSET 11.7543 0.0 0.0
						CHANNELS 6 Xposition Yposition Zposition Zrotation Xrotation Yrotation 
						End Site
						{
							OFFSET 0.0 0.0 0.0
						}
					}
				}
			}
		}
		JOINT UpperLeg_R
		{
			OFFSET -2.19251 6.46944 0.0
			CHANNELS 6 Xposition Yposition Zposition Zrotation Xrotation Yrotation 
			JOINT LowerLeg_R
			{
				OFFSET -39.0811 -0.00228153 -0.0401928
				CHANNELS 6 Xposition Yposition Zposition Zrotation Xrotation Yrotation 
				JOINT Foot_R
				{
					OFFSET -40.9854 0.0 0.0
					CHANNELS 6 Xposition Yposition Zposition Zrotation Xrotation Yrotation 
					JOINT Toes_R
					{
						OFFSET -11.7543 0.0 0.0
						CHANNELS 6 Xposition Yposition Zposition Zrotation Xrotation Yrotation 
						End Site
						{
							OFFSET 0.0 0.0 0.0
						}
					}
				}
			}
		}
	}
}
MOTION
Frames:	5
Frame Time:	0.0333333
0.000000 0.000000 0.000000 0.000000 0.000000 -0.000000 -3.841050 92.711600 2.271040 87.289500 -0.262006 3.303960 15.735700 0.000005 -0.000001 82.971000 86.382600 -81.232000 8.984550 -0.406207 -0.000000 -0.567860 -1.011560 3.471290 16.377300 -0.000001 -0.000001 2.272510 1.937390 -2.077030 6.456720 -0.000001 -0.000000 4.589660 3.029360 -0.234101 12.994200 -0.242716 4.980390 -92.572000 8.022520 -72.158700 5.348090 -0.000007 -0.000001 -74.736600 25.922900 1.493420 24.328600 0.000019 0.000005 11.876900 25.828000 -25.768000 22.291600 -0.000001 0.000005 -2.536850 4.997460 7.373400 12.994500 -0.242716 -4.980390 88.881300 3.878680 -73.897900 -5.348130 -0.000001 -0.000004 -71.472700 29.487700 -4.455550 -24.328900 0.000322 -0.000009 1.039150 3.459540 -16.746000 -22.291500 -0.000108 -0.000004 -10.337400 5.101710 5.074450 -2.192480 -6.469440 -0.000000 -170.387000 -6.512470 2.763000 39.081100 -0.000007 -0.000012 0.013089 -0.046101 15.850900 40.985400 -0.000006 -0.000013 -2.393740 13.500800 -69.699500 11.754300 -0.000000 0.000003 -0.001567 0.190786 -8.836950 -2.192510 6.469440 -0.000001 -179.497000 5.537730 -175.980000 -39.081100 -0.002282 -0.040193 0.042823 -0.158767 13.968000 -40.985400 0.000008 0.000006 -2.296280 4.400010 -70.270400 -11.754300 -0.000006 -0.000006 -0.010845 0.277516 -5.296890
0.000000 0.000000 0.000000 0.000000 0.000000 -0.000000 -3.703350 92.709200 2.317150 87.289500 -0.165793 3.301880 15.735700 0.000005 -0.000001 82.094600 86.354900 -80.483900 8.984550 -0.406207 -0.000000 -0.527316 -1.118980 3.214550 16.377300 -0.000001 -0.000001 2.069050 2.001440 -2.312000 6.456720 -0.000001 -0.000000 4.517280 2.986790 -0.574006 12.994200 -0.242716 4.980390 -92.587500 8.057380 -72.129800 5.348090 -0.000007 -0.000001 -74.593300 25.270200 1.645740 24.328600 0.000019 0.000005 11.943100 25.691300 -26.008000 22.291600 -0.000001 0.000005 -2.464650 4.996870 7.385930 12.994500 -0.242716 -4.980390 88.829500 3.957330 -73.507700 -5.348130 -0.000001 -0.000004 -70.363000 28.331500 -4.981110 -24.328900 0.000322 -0.000009 1.399600 4.612780 -16.911000 -22.291500 -0.000108 -0.000004 -11.496000 5.121720 4.611300 -2.192480 -6.469440 -0.000000 -170.501000 -6.389330 2.706050 39.081100 -0.000007 -0.000012 0.014326 -0.050053 15.972400 40.985400 -0.000006 -0.000013 -2.273270 13.474600 -69.795900 11.754300 -0.000000 0.000003 -0.001664 0.192053 -8.785440 -2.192510 6.469440 -0.000001 -179.640000 5.720330 -175.900000 -39.081100 -0.002282 -0.040193 0.039728 -0.147268 13.882100 -40.985400 0.000008 0.000006 -2.486810 4.544540 -70.175700 -11.754300 -0.000006 -0.000006 -0.010577 0.275565 -5.376730
0.000000 0.000000 0.000000 0.000000 0.000000 -0.000000 -3.558400 92.706600 2.394720 87.256200 -0.098436 3.319350 15.735700 0.000005 -0.000001 81.332000 86.329900 -79.897400 8.984550 -0.406207 -0.000000 -0.492866 -1.209340 2.862610 16.377300 -0.000001 -0.000001 1.793650 2.061710 -2.495310 6.456720 -0.000001 -0.000000 4.536590 3.033860 -1.009270 12.994200 -0.242716 4.980390 -92.560200 7.993720 -72.175800 5.348090 -0.000007 -0.000001 -74.442900 24.430500 1.870700 24.328600 0.000019 0.000005 12.027200 25.489700 -26.338500 22.291600 -0.000001 0.000005 -2.411600 4.996390 7.396150 12.994500 -0.242716 -4.980390 88.818900 3.917550 -73.208200 -5.348130 -0.000001 -0.000004 -68.617000 27.153800 -5.504860 -24.328900 0.000322 -0.000009 1.832260 5.772010 -17.654500 -22.291500 -0.000108 -0.000004 -13.079700 5.140200 4.176770 -2.192480 -6.469440 -0.000000 -170.573000 -6.332650 2.695530 39.081100 -0.000007 -0.000012 0.014491 -0.050222 16.095000 40.985400 -0.000006 -0.000013 -2.152430 13.432300 -69.901900 11.754300 -0.000000 0.000003 -0.001786 0.193640 -8.720880 -2.192510 6.469440 -0.000001 -179.761000 5.792130 -175.780000 -39.081100 -0.002282 -0.040193 0.035156 -0.129704 13.785600 -40.985400 0.000008 0.000006 -2.863090 4.682370 -70.104600 -11.754300 -0.000006 -0.000006 -0.010739 0.276743 -5.328490
0.000000 0.000000 0.000000 0.000000 0.000000 -0.000000 -3.391700 92.701500 2.448290 87.208400 -0.166270 3.306290 15.735700 0.000005 -0.000001 81.287300 86.317600 -80.089400 8.984550 -0.406207 -0.000000 -0.472440 -1.201480 2.389630 16.377300 -0.000001 -0.000001 1.424160 2.148470 -2.643810 6.456720 -0.000001 -0.000000 4.635710 3.098330 -1.486950 12.994200 -0.242716 4.980390 -92.540100 7.910410 -72.133700 5.348090 -0.000007 -0.000001 -74.061300 23.922000 1.914410 24.328600 0.000019 0.000005 12.103900 25.386100 -26.575000 22.291600 -0.000001 0.000005 -2.359720 4.998580 7.349650 12.994500 -0.242716 -4.980390 88.825200 3.828820 -72.928100 -5.348130 -0.000001 -0.000004 -66.065200 25.002800 -6.258190 -24.328900 0.000322 -0.000009 2.299770 6.945130 -18.380400 -22.291500 -0.000108 -0.000004 -15.313100 5.171410 3.425900 -2.192480 -6.469440 -0.000000 -170.675000 -6.193060 2.642830 39.081100 -0.000007 -0.000012 0.015824 -0.054240 16.264100 40.985400 -0.000006 -0.000013 -2.034640 13.216500 -70.011000 11.754300 -0.000000 0.000003 -0.001760 0.193300 -8.734730 -2.192510 6.469440 -0.000001 -179.901000 5.923740 -175.720000 -39.081100 -0.002282 -0.040193 0.030717 -0.112309 13.702900 -40.985400 0.000008 0.000006 -3.192840 4.958770 -69.957200 -11.754300 -0.000006 -0.000006 -0.010724 0.276636 -5.332880
0.000000 0.000000 0.000000 0.000000 0.000000 -0.000000 -3.209060 92.693700 2.523970 87.124200 -0.249616 3.391190 15.735700 0.000005 -0.000001 81.822200 86.287900 -80.908100 8.984550 -0.406207 -0.000000 -0.407726 -1.121000 1.823240 16.377300 -0.000001 -0.000001 1.057180 2.190470 -2.849730 6.456720 -0.000001 -0.000000 4.689970 3.084070 -2.005560 12.994200 -0.242716 4.980390 -92.518700 7.860090 -72.169400 5.348090 -0.000007 -0.000001 -73.445300 23.647100 1.954470 24.328600 0.000019 0.000005 12.151500 25.111900 -26.901800 22.291600 -0.000001 0.000005 -2.455430 4.997640 7.369650 12.994500 -0.242716 -4.980390 88.858400 3.624850 -72.505700 -5.348130 -0.000001 -0.000004 -62.574900 22.108700 -7.413420 -24.328900 0.000322 -0.000009 2.358500 7.011000 -18.653700 -22.291500 -0.000108 -0.000004 -17.389400 5.178230 3.259350 -2.192480 -6.469440 -0.000000 -170.711000 -6.204310 2.706290 39.081100 -0.000007 -0.000012 0.016482 -0.055801 16.456300 40.985400 -0.000006 -0.000013 -1.888260 13.109500 -70.134200 11.754300 -0.000000 0.000003 -0.001650 0.191873 -8.792750 -2.192510 6.469440 -0.000001 179.970000 6.061770 -175.514000 -39.081100 -0.002282 -0.040193 0.025313 -0.091114 13.562700 -40.985400 0.000008 0.000006 -3.509280 5.241740 -69.852200 -11.754300 -0.000006 -0.000006 -0.010934 0.278158 -5.270610
